<svg width="70" height="70" viewBox="0 0 70 70" fill="none" xmlns="http://www.w3.org/2000/svg">
<path opacity="0.2" d="M10.9375 61.25C14.5619 61.25 17.5 58.3119 17.5 54.6875C17.5 51.0631 14.5619 48.125 10.9375 48.125C7.31313 48.125 4.375 51.0631 4.375 54.6875C4.375 58.3119 7.31313 61.25 10.9375 61.25Z" fill="#288BFD"/>
<path opacity="0.2" d="M26.25 32.8125C29.8744 32.8125 32.8125 29.8744 32.8125 26.25C32.8125 22.6256 29.8744 19.6875 26.25 19.6875C22.6256 19.6875 19.6875 22.6256 19.6875 26.25C19.6875 29.8744 22.6256 32.8125 26.25 32.8125Z" fill="#288BFD"/>
<path opacity="0.2" d="M43.75 50.3125C47.3744 50.3125 50.3125 47.3744 50.3125 43.75C50.3125 40.1256 47.3744 37.1875 43.75 37.1875C40.1256 37.1875 37.1875 40.1256 37.1875 43.75C37.1875 47.3744 40.1256 50.3125 43.75 50.3125Z" fill="#288BFD"/>
<path opacity="0.2" d="M59.0625 21.875C62.6869 21.875 65.625 18.9369 65.625 15.3125C65.625 11.6881 62.6869 8.75 59.0625 8.75C55.4381 8.75 52.5 11.6881 52.5 15.3125C52.5 18.9369 55.4381 21.875 59.0625 21.875Z" fill="#288BFD"/>
<path d="M16.5625 53.125C20.1869 53.125 23.125 50.1869 23.125 46.5625C23.125 42.9381 20.1869 40 16.5625 40C12.9381 40 10 42.9381 10 46.5625C10 50.1869 12.9381 53.125 16.5625 53.125Z" stroke="#288BFD" stroke-width="3" stroke-linecap="round" stroke-linejoin="round"/>
<path d="M26.25 32.8125C29.8744 32.8125 32.8125 29.8744 32.8125 26.25C32.8125 22.6256 29.8744 19.6875 26.25 19.6875C22.6256 19.6875 19.6875 22.6256 19.6875 26.25C19.6875 29.8744 22.6256 32.8125 26.25 32.8125Z" stroke="#288BFD" stroke-width="3" stroke-linecap="round" stroke-linejoin="round"/>
<path d="M43.75 50.3125C47.3744 50.3125 50.3125 47.3744 50.3125 43.75C50.3125 40.1256 47.3744 37.1875 43.75 37.1875C40.1256 37.1875 37.1875 40.1256 37.1875 43.75C37.1875 47.3744 40.1256 50.3125 43.75 50.3125Z" stroke="#288BFD" stroke-width="3" stroke-linecap="round" stroke-linejoin="round"/>
<path d="M59.0625 21.875C62.6869 21.875 65.625 18.9369 65.625 15.3125C65.625 11.6881 62.6869 8.75 59.0625 8.75C55.4381 8.75 52.5 11.6881 52.5 15.3125C52.5 18.9369 55.4381 21.875 59.0625 21.875Z" stroke="#288BFD" stroke-width="3" stroke-linecap="round" stroke-linejoin="round"/>
<path d="M19.0781 38L10 54.8984" stroke="#288BFD" stroke-width="3" stroke-linecap="round" stroke-linejoin="round"/>
<path d="M39.1016 39.1016L30.8984 30.8984" stroke="#288BFD" stroke-width="3" stroke-linecap="round" stroke-linejoin="round"/>
<path d="M55.9453 21.082L46.8672 37.9805" stroke="#288BFD" stroke-width="3" stroke-linecap="round" stroke-linejoin="round"/>
</svg>
